HIERARCHY
ROOT Hips
{
    OFFSET 0.00000 0.00000 0.00000
    CHANNELS 6 Xposition Yposition Zposition Zrotation Yrotation Xrotation
    JOINT LHipJoint
    {
        OFFSET 0.00000 0.00000 0.00000
        CHANNELS 3 Zrotation Yrotation Xrotation
        JOINT LeftUpLeg
        {
            OFFSET 126.00988 0.00000 0.00000
            CHANNELS 3 Zrotation Yrotation Xrotation
            JOINT LeftLeg
            {
                OFFSET 0.00000 0.00000 -438.48094
                CHANNELS 3 Zrotation Yrotation Xrotation
                JOINT LeftFoot
                {
                    OFFSET 0.00000 0.00000 -414.96806
                    CHANNELS 3 Zrotation Yrotation Xrotation
                    JOINT LeftToeBase
                    {
                        OFFSET 0.00000 -0.10000 0.00000
                        CHANNELS 3 Zrotation Yrotation Xrotation
                        End Site
                        {
                            OFFSET 0.00000 0.00000 0.10000
                        }
                    }
                }
            }
        }
    }
    JOINT RHipJoint
    {
        OFFSET 0.00000 0.00000 0.00000
        CHANNELS 3 Zrotation Yrotation Xrotation
        JOINT RightUpLeg
        {
            OFFSET -126.00988 0.00000 0.00000
            CHANNELS 3 Zrotation Yrotation Xrotation
            JOINT RightLeg
            {
                OFFSET 0.00000 0.00000 -438.48094
                CHANNELS 3 Zrotation Yrotation Xrotation
                JOINT RightFoot
                {
                    OFFSET 0.00000 0.00000 -414.96806
                    CHANNELS 3 Zrotation Yrotation Xrotation
                    JOINT RightToeBase
                    {
                        OFFSET 0.00000 -0.10000 0.00000
                        CHANNELS 3 Zrotation Yrotation Xrotation
                        End Site
                        {
                            OFFSET 0.00000 0.00000 0.10000
                        }
                    }
                }
            }
        }
    }
    JOINT LowerBack
    {
        OFFSET 0.00000 0.00000 0.00000
        CHANNELS 3 Zrotation Yrotation Xrotation
        JOINT Spine
        {
            OFFSET 0.00000 0.00000 235.61185
            CHANNELS 3 Zrotation Yrotation Xrotation
            JOINT Spine1
            {
                OFFSET 0.00000 0.00000 250.34927
                CHANNELS 3 Zrotation Yrotation Xrotation
                JOINT Neck
                {
                    OFFSET 0.00000 0.00000 0.00000
                    CHANNELS 3 Zrotation Yrotation Xrotation
                    JOINT Neck1
                    {
                        OFFSET 0.00000 0.00000 96.69944
                        CHANNELS 3 Zrotation Yrotation Xrotation
                        JOINT Head
                        {
                            OFFSET 0.00000 0.00000 108.44757
                            CHANNELS 3 Zrotation Yrotation Xrotation
                            End Site
                            {
                                OFFSET 0.00000 0.09806 -0.01961
                            }
                        }
                    }
                }
                JOINT LeftShoulder
                {
                    OFFSET 0.00000 0.00000 0.00000
                    CHANNELS 3 Zrotation Yrotation Xrotation
                    JOINT LeftArm
                    {
                        OFFSET 139.58383 0.00000 0.00000
                        CHANNELS 3 Zrotation Yrotation Xrotation
                        JOINT LeftForeArm
                        {
                            OFFSET 260.80540 0.00000 0.00000
                            CHANNELS 3 Zrotation Yrotation Xrotation
                            JOINT LeftHand
                            {
                                OFFSET 215.78538 0.00000 0.00000
                                CHANNELS 3 Zrotation Yrotation Xrotation
                                JOINT LeftFingerBase
                                {
                                    OFFSET 0.00000 0.00000 0.00000
                                    CHANNELS 3 Zrotation Yrotation Xrotation
                                    JOINT LeftHandIndex1
                                    {
                                        OFFSET 0.10000 0.00000 0.00000
                                        CHANNELS 3 Zrotation Yrotation Xrotation
                                        End Site
                                        {
                                            OFFSET 0.10000 0.00000 0.00000
                                        }
                                    }
                                }
                                JOINT LThumb
                                {
                                    OFFSET 0.10000 0.00000 0.00000
                                    CHANNELS 3 Zrotation Yrotation Xrotation
                                    End Site
                                    {
                                        OFFSET 0.07071 0.00000 0.07071
                                    }
                                }
                            }
                        }
                    }
                }
                JOINT RightShoulder
                {
                    OFFSET 0.00000 0.00000 0.00000
                    CHANNELS 3 Zrotation Yrotation Xrotation
                    JOINT RightArm
                    {
                        OFFSET -139.58383 0.00000 0.00000
                        CHANNELS 3 Zrotation Yrotation Xrotation
                        JOINT RightForeArm
                        {
                            OFFSET -260.80540 0.00000 0.00000
                            CHANNELS 3 Zrotation Yrotation Xrotation
                            JOINT RightHand
                            {
                                OFFSET -215.78538 0.00000 0.00000
                                CHANNELS 3 Zrotation Yrotation Xrotation
                                JOINT RightFingerBase
                                {
                                    OFFSET 0.00000 0.00000 0.00000
                                    CHANNELS 3 Zrotation Yrotation Xrotation
                                    JOINT RightHandIndex1
                                    {
                                        OFFSET -0.10000 0.00000 0.00000
                                        CHANNELS 3 Zrotation Yrotation Xrotation
                                        End Site
                                        {
                                            OFFSET -0.10000 0.00000 0.00000
                                        }
                                    }
                                }
                                JOINT RThumb
                                {
                                    OFFSET -0.10000 0.00000 0.00000
                                    CHANNELS 3 Zrotation Yrotation Xrotation
                                    End Site
                                    {
                                        OFFSET -0.07071 0.00000 0.07071
                                    }
                                }
                            }
                        }
                    }
                }
            }
        }
    }
}
MOTION
Frames: 5
Frame Time: 0.03333333333333333
0.0 0.0 922.1006332850415 2.3081908193761627 -8.225465007522928 36.73703924521725 0.0 1.987846675914698e-16 0.0 8.613497728308042 5.295414145879479 -57.54675439904721 10.614969236997657 18.49872474284686 52.004823905118855 -1.1034765745125397e-32 -3.9756933518293955e-16 3.1805546814635164e-15 -1.1034765745125397e-32 -3.9756933518293955e-16 3.1805546814635164e-15 0.0 1.987846675914698e-16 0.0 7.808713357357965 8.997023329899854 -77.64334475043185 -2.7898502700082157 5.8620881670989995 54.025487740918585 0.0 -1.987846675914698e-16 0.0 0.0 -1.987846675914698e-16 0.0 0.0 1.987846675914698e-16 0.0 -1.1357145923111738 -0.8494096167793554 5.605837761227152 -7.034494602804073 1.099947415316058e-16 -1.4506694225616572e-15 -3.9756933518293955e-16 5.963540027744092e-16 -6.361109362927032e-15 15.175308438386663 0.15457995521382356 -17.25066713650256 0.0 -7.951386703658792e-16 0.0 -3.9756933518293955e-16 5.963540027744092e-16 -6.361109362927032e-15 -32.648509935518426 42.93218135046501 -11.943753557237963 -51.36059618959998 8.709013676852995e-15 -1.1245961159988834e-14 0.0 3.1805546814635168e-15 0.0 0.0 3.1805546814635168e-15 0.0 0.0 3.1805546814635168e-15 0.0 0.0 3.1805546814635168e-15 0.0 -3.9756933518293955e-16 5.963540027744092e-16 -6.361109362927032e-15 13.618547877263207 -44.783806796638956 -48.92922354323564 67.11505215948698 -2.7145160623564483e-15 -5.617296187278915e-15 0.0 -1.5902773407317584e-15 0.0 0.0 -1.5902773407317584e-15 0.0 0.0 -1.5902773407317584e-15 0.0 0.0 -1.5902773407317584e-15 0.0
0.0 0.0 922.1006332850415 1.9140453852019923 -8.774349877877826 36.27232920428586 0.0 1.987846675914698e-16 0.0 8.65033138478411 5.556683866429455 -56.704903449209716 11.196893373446782 18.840620334865875 52.8653008964437 0.0 -2.7829853462805768e-15 0.0 0.0 -2.7829853462805768e-15 0.0 0.0 1.987846675914698e-16 0.0 7.519540523117317 9.434947388274942 -77.09917965984015 -2.868911250461058 5.382996215461139 52.289211312494416 0.0 0.0 0.0 0.0 0.0 0.0 0.0 1.987846675914698e-16 0.0 -1.2474890507015615 -0.42033869306076843 6.133479569463179 -6.5366928569745015 -1.2440479803475013e-16 -9.15188794039035e-15 0.0 2.981770013872047e-16 0.0 13.759695986824482 0.4549111358050775 -17.34204565223694 -3.4483642953516864e-34 -3.975693351829397e-16 9.939233379573492e-17 0.0 2.981770013872047e-16 0.0 -32.49259854810466 42.88970871080488 -12.919835855528966 -53.25083473930778 1.422386505321517e-14 -1.4986110704562833e-17 6.3611093629270335e-15 -2.3854160110976376e-15 -1.3241718894150476e-31 6.3611093629270335e-15 -2.3854160110976376e-15 -1.3241718894150476e-31 6.3611093629270335e-15 -2.3854160110976376e-15 -1.3241718894150476e-31 6.3611093629270335e-15 -2.3854160110976376e-15 -1.3241718894150476e-31 0.0 2.981770013872047e-16 0.0 13.428931553833012 -44.15911191278852 -50.3178714523623 68.08927219534169 1.1331348268666867e-15 8.442514791913098e-15 0.0 -1.5902773407317584e-15 0.0 0.0 -1.5902773407317584e-15 0.0 0.0 -1.5902773407317584e-15 0.0 0.0 -1.5902773407317584e-15 0.0
0.0 0.0 922.1006332850415 2.893599345530458 -10.46386571546353 35.54485505227129 7.951386703658792e-16 1.5902773407317584e-15 1.1034765745125397e-32 8.144950656542038 7.068052587785984 -54.211212383382126 10.888172952228164 18.04239096221776 53.494573511967914 0.0 0.0 0.0 0.0 0.0 0.0 7.951386703658792e-16 1.5902773407317584e-15 1.1034765745125397e-32 6.300322366744274 11.20517813369061 -75.7168582078775 -1.4916378912396937 4.974988260881078 47.221099729344964 0.0 0.0 0.0 0.0 0.0 0.0 7.951386703658792e-16 1.5902773407317584e-15 1.1034765745125397e-32 -1.8700194869406048 -0.20995022553629739 8.103963905400315 -6.697464811246275 6.820563423476946e-16 -1.3866628744811979e-14 0.0 9.939233379573489e-17 0.0 13.653488571687207 2.1594945677805324 -18.752346260672685 0.0 7.951386703658792e-16 0.0 0.0 9.939233379573489e-17 0.0 -32.01225322422867 39.5408012039438 -14.905549579434497 -56.39849293341864 -1.097297124689667e-15 1.1415034125366477e-14 0.0 -7.951386703658792e-16 0.0 0.0 -7.951386703658792e-16 0.0 0.0 -7.951386703658792e-16 0.0 0.0 -7.951386703658792e-16 0.0 0.0 9.939233379573489e-17 0.0 11.8314628497335 -42.49973992890663 -52.57304348150446 66.23094584882294 3.4600908659924817e-15 4.155613770608287e-15 0.0 -1.5902773407317584e-15 0.0 0.0 -1.5902773407317584e-15 0.0 0.0 -1.5902773407317584e-15 0.0 0.0 -1.5902773407317584e-15 0.0
0.0 0.0 922.1006332850415 2.815977775087821 -10.33655910322914 34.612538478308004 -1.1948582283393593e-31 2.1866313435061676e-15 -6.2617170291312985e-15 8.106748062363508 6.159540707622405 -52.1163627451678 11.045555544280935 18.446750410658442 53.37616284184888 0.0 3.975693351829396e-16 0.0 0.0 3.975693351829396e-16 0.0 -1.1948582283393593e-31 2.1866313435061676e-15 -6.2617170291312985e-15 5.929988533327578 10.583467801489672 -73.53787145943937 -2.1355479041043472 3.9684850865579926 45.58601350635081 0.0 5.466578358765419e-16 0.0 0.0 5.466578358765419e-16 0.0 -1.1948582283393593e-31 2.1866313435061676e-15 -6.2617170291312985e-15 -1.8608967249125745 -0.5282463565223792 8.168037714833542 -6.3928969663429305 1.701934981696328e-15 -3.3925483485442576e-15 0.0 0.0 0.0 12.447384280884485 2.236583083507546 -18.54656991102083 0.0 -3.975693351829396e-16 0.0 0.0 0.0 0.0 -29.721303201074758 39.93030292661005 -14.090728318268102 -60.136439811747735 1.1589898964674786e-15 -4.3461015385567426e-15 0.0 6.3611093629270335e-15 0.0 0.0 6.3611093629270335e-15 0.0 0.0 6.3611093629270335e-15 0.0 0.0 6.3611093629270335e-15 0.0 0.0 0.0 0.0 11.239275874345637 -40.99919275137754 -53.47056933559094 68.98982219839444 2.4804286940696312e-16 9.818117416718265e-15 0.0 0.0 0.0 0.0 0.0 0.0 0.0 0.0 0.0 0.0 0.0 0.0
0.0 0.0 922.1006332850415 2.6489814781757897 -10.48123848965345 33.88974765104933 0.0 3.975693351829396e-16 0.0 8.055443991431083 5.76942178914544 -50.195648240142816 11.012378992604948 18.72802367610012 53.04938257539056 0.0 -7.951386703658792e-16 0.0 0.0 -7.951386703658792e-16 0.0 0.0 3.975693351829396e-16 0.0 5.819129198696605 10.53467194025583 -72.7212495527924 -2.701314232371802 3.3348588615786707 45.62838653502357 0.0 -9.93923337957349e-17 0.0 0.0 -9.93923337957349e-17 0.0 0.0 3.975693351829396e-16 0.0 -1.8792258817927838 -0.5608289485917385 8.220110026223933 -6.30696908595464 2.495276696416806e-15 -7.105490256414329e-15 0.0 1.987846675914698e-16 0.0 11.718120768851978 2.208485840348598 -18.421920491036197 0.0 5.963540027744094e-16 0.0 0.0 1.987846675914698e-16 0.0 -27.902298215616057 39.068572200271625 -14.395036348228036 -63.77467326064198 -9.12215893187909e-15 9.421093026384461e-15 0.0 3.1805546814635168e-15 0.0 0.0 3.1805546814635168e-15 0.0 0.0 3.1805546814635168e-15 0.0 0.0 3.1805546814635168e-15 0.0 0.0 1.987846675914698e-16 0.0 11.024049056625815 -40.18817396673303 -54.513641008203955 69.28995199339245 -3.454606163655839e-16 7.493364192232934e-15 -6.3611093629270335e-15 3.1805546814635168e-15 -1.7655625192200634e-31 -6.3611093629270335e-15 3.1805546814635168e-15 -1.7655625192200634e-31 -6.3611093629270335e-15 3.1805546814635168e-15 -1.7655625192200634e-31 -6.3611093629270335e-15 3.1805546814635168e-15 -1.7655625192200634e-31
